<svg width="360" height="1242" viewBox="0 0 360 1242" fill="none" xmlns="http://www.w3.org/2000/svg">
<g clip-path="url(#clip0_275_27)">
<path fill-rule="evenodd" clip-rule="evenodd" d="M-31.2461 340.204C-2.01097 330.183 13.5656 298.36 3.54526 269.125C-6.47511 239.89 -38.2979 224.314 -67.533 234.334C-96.7681 244.354 -112.345 276.177 -102.324 305.412C-92.304 334.647 -60.4811 350.224 -31.2461 340.204ZM396.534 404.844C425.769 394.824 441.345 363.001 431.325 333.766C421.305 304.531 389.482 288.954 360.247 298.974C331.012 308.995 315.435 340.818 325.455 370.053C335.476 399.288 367.299 414.864 396.534 404.844ZM53.2192 463.362C65.7485 459.068 72.4242 445.429 68.1298 432.9C63.8353 420.371 50.197 413.695 37.6676 417.989C25.1383 422.284 18.4626 435.922 22.7571 448.451C27.0515 460.981 40.6899 467.657 53.2192 463.362ZM609.982 534.496C622.511 530.202 629.187 516.564 624.893 504.034C620.598 491.505 606.96 484.829 594.431 489.124C581.901 493.418 575.226 507.056 579.52 519.586C583.814 532.115 597.453 538.791 609.982 534.496ZM329.301 825.062C341.831 820.767 348.506 807.129 344.212 794.6C339.917 782.07 326.279 775.395 313.75 779.689C301.22 783.983 294.545 797.622 298.839 810.151C303.134 822.68 316.772 829.356 329.301 825.062ZM555.793 105.193C568.323 100.899 574.998 87.2602 570.704 74.7309C566.409 62.2015 552.771 55.5258 540.242 59.8203C527.712 64.1147 521.037 77.7531 525.331 90.2824C529.626 102.812 543.264 109.487 555.793 105.193ZM152.567 851.836C169.273 846.11 178.174 827.925 172.448 811.219C166.722 794.514 148.537 785.613 131.832 791.339C115.126 797.065 106.225 815.249 111.951 831.955C117.677 848.661 135.861 857.561 152.567 851.836ZM195.831 287.724C212.537 281.998 221.438 263.814 215.712 247.108C209.986 230.402 191.801 221.501 175.096 227.227C158.39 232.953 149.489 251.138 155.215 267.843C160.941 284.549 179.125 293.45 195.831 287.724ZM341.249 144.927C362.131 137.769 373.257 115.039 366.099 94.1563C358.942 73.2741 336.211 62.148 315.329 69.3054C294.447 76.4628 283.321 99.1934 290.478 120.076C297.636 140.958 320.366 152.084 341.249 144.927ZM451.391 614.205C468.097 608.479 476.998 590.295 471.272 573.589C465.546 556.883 447.362 547.982 430.656 553.708C413.95 559.434 405.049 577.619 410.775 594.324C416.501 611.03 434.686 619.931 451.391 614.205ZM727.715 705.406C748.597 698.248 759.723 675.518 752.566 654.636C745.409 633.753 722.678 622.627 701.796 629.785C680.914 636.942 669.788 659.673 676.945 680.555C684.102 701.437 706.833 712.563 727.715 705.406ZM244.195 626.068C265.077 618.911 276.203 596.18 269.046 575.298C261.889 554.416 239.158 543.29 218.276 550.447C197.394 557.605 186.267 580.335 193.425 601.217C200.582 622.1 223.313 633.226 244.195 626.068ZM641.541 380.021C662.423 372.864 673.549 350.133 666.392 329.251C659.234 308.369 636.504 297.243 615.621 304.4C594.739 311.557 583.613 334.288 590.77 355.17C597.928 376.052 620.658 387.178 641.541 380.021ZM519.051 244.544C527.404 241.681 531.854 232.589 528.991 224.236C526.129 215.883 517.036 211.433 508.683 214.296C500.331 217.158 495.88 226.251 498.743 234.604C501.606 242.956 510.698 247.407 519.051 244.544ZM528.508 765.234C536.861 762.371 541.312 753.278 538.449 744.926C535.586 736.573 526.493 732.122 518.141 734.985C509.788 737.848 505.337 746.94 508.2 755.293C511.063 763.646 520.155 768.097 528.508 765.234ZM209.859 451.926C218.212 449.063 222.662 439.971 219.799 431.618C216.936 423.265 207.844 418.815 199.491 421.678C191.138 424.541 186.688 433.633 189.551 441.986C192.414 450.339 201.506 454.789 209.859 451.926ZM85.177 655.221C93.5298 652.358 97.9803 643.265 95.1173 634.912C92.2544 626.56 83.1621 622.109 74.8093 624.972C66.4564 627.835 62.0059 636.927 64.8689 645.28C67.7318 653.633 76.8241 658.084 85.177 655.221Z" fill="#DDEFFD" fill-opacity="0.4"/>
</g>
<path d="M242.274 1115.88L173 1242H360V595L323.892 742.087C316.315 772.953 311.704 804.472 310.121 836.215L307.693 884.946C303.659 965.886 281.29 1044.85 242.274 1115.88Z" fill="#DDEFFD"/>
<defs>
<clipPath id="clip0_275_27">
<rect width="799.398" height="799.398" fill="white" transform="translate(-161.084 232.597) rotate(-18.9192)"/>
</clipPath>
</defs>
</svg>
